<?xml version="1.0" standalone="no"?>
<!DOCTYPE svg PUBLIC "-//W3C//DTD SVG 20010904//EN"
 "http://www.w3.org/TR/2001/REC-SVG-20010904/DTD/svg10.dtd">
<svg version="1.0" xmlns="http://www.w3.org/2000/svg"
 width="438.000000pt" height="517.000000pt" viewBox="0 0 438.000000 517.000000"
 preserveAspectRatio="xMidYMid meet">

<g transform="translate(0.000000,517.000000) scale(0.100000,-0.100000)"
fill="#000000" stroke="none">
<path d="M773 5159 c-100 -13 -278 -114 -369 -211 -35 -37 -60 -78 -83 -133
-29 -68 -47 -94 -125 -175 -166 -173 -192 -233 -183 -419 11 -235 66 -320 94
-146 8 57 19 86 45 122 19 27 39 60 46 76 6 15 18 27 25 27 14 0 154 -68 237
-115 25 -14 54 -25 66 -25 11 0 29 -9 38 -19 36 -39 40 -127 26 -506 -11 -284
-11 -417 -2 -644 7 -157 16 -308 22 -336 5 -27 28 -85 50 -128 23 -43 66 -149
96 -235 71 -200 117 -295 199 -407 36 -49 87 -118 112 -153 25 -35 70 -118
100 -185 30 -67 77 -160 105 -205 72 -120 149 -296 155 -356 4 -45 1 -57 -27
-98 -17 -26 -63 -75 -101 -109 -39 -34 -91 -90 -116 -123 -62 -82 -132 -154
-167 -173 -16 -8 -77 -19 -135 -24 -118 -11 -264 -42 -298 -65 -39 -25 -30
-114 12 -114 13 0 25 -7 29 -15 7 -20 44 -19 144 5 89 21 102 20 102 -11 0
-28 38 -25 50 5 13 36 25 38 48 11 27 -30 50 -31 138 -4 56 17 78 30 115 69
41 44 61 55 185 102 153 58 217 95 251 147 29 42 29 46 -2 77 -14 14 -25 27
-25 31 0 5 47 0 108 -13 29 -6 32 -4 32 19 0 26 -51 102 -82 121 -13 8 -26 7
-49 -1 -30 -12 -29 -10 19 40 95 101 154 227 154 329 0 54 1 58 22 53 11 -3
109 -23 216 -45 108 -21 208 -44 222 -49 49 -19 60 -50 67 -190 7 -126 7 -129
39 -165 l32 -37 0 -117 c0 -64 -7 -147 -15 -185 -18 -85 -66 -177 -117 -223
l-40 -35 -97 6 c-88 7 -103 5 -147 -14 -63 -28 -86 -50 -114 -110 -26 -57 -22
-87 13 -77 12 4 43 9 68 11 26 2 176 32 335 66 262 55 305 61 455 68 177 7
188 10 251 69 24 22 28 23 34 9 7 -20 27 -22 42 -4 6 7 14 38 18 68 5 44 3 59
-11 72 -24 25 -88 21 -170 -9 -254 -93 -361 -31 -327 189 10 68 20 87 94 185
l33 44 5 161 c7 198 15 219 91 241 29 9 79 18 113 22 73 6 78 3 182 -125 94
-116 325 -298 366 -289 7 1 34 -6 61 -16 37 -15 63 -18 123 -13 65 5 82 3 116
-15 44 -23 65 -18 83 20 10 22 25 30 25 13 0 -13 75 -41 109 -41 32 0 56 23
66 63 4 15 9 27 11 27 2 0 49 -12 105 -26 118 -31 140 -26 165 33 9 21 21 48
27 60 12 27 -2 48 -130 183 -78 83 -88 98 -82 120 15 54 9 104 -20 155 -49 86
-119 155 -187 186 -34 15 -109 59 -166 97 l-105 70 -96 194 c-154 308 -531
886 -820 1256 -160 206 -387 414 -522 478 -80 38 -109 66 -190 179 -108 152
-135 205 -141 281 -4 47 -14 80 -29 105 l-23 35 24 21 c31 27 30 32 -6 78 -26
32 -29 42 -23 80 4 35 1 49 -16 71 -16 21 -20 35 -15 64 6 34 2 42 -34 82 -36
39 -39 45 -26 62 20 28 2 52 -47 60 -64 10 -114 41 -197 120 -111 106 -230
170 -464 250 -120 41 -201 54 -275 45z m667 -4519 c-12 -16 -26 -30 -31 -30
-11 0 -4 16 19 43 25 29 35 19 12 -13z"/>
</g>
</svg>
